<svg width="161" height="56" viewBox="0 0 161 56" fill="none" xmlns="http://www.w3.org/2000/svg">
<rect width="161" height="56" rx="28" fill="#58C17D"/>
<path d="M41.5832 36.125C36.8748 36.125 33.0415 32.2916 33.0415 27.5833C33.0415 22.875 36.8748 19.0416 41.5832 19.0416C46.2915 19.0416 50.1248 22.875 50.1248 27.5833C50.1248 32.2916 46.2915 36.125 41.5832 36.125ZM41.5832 20.2916C37.5582 20.2916 34.2915 23.5666 34.2915 27.5833C34.2915 31.6 37.5582 34.875 41.5832 34.875C45.6082 34.875 48.8748 31.6 48.8748 27.5833C48.8748 23.5666 45.6082 20.2916 41.5832 20.2916Z" fill="#FCFCFD"/>
<path d="M50.3335 36.9583C50.1752 36.9583 50.0169 36.9 49.8919 36.775L48.2252 35.1083C47.9835 34.8666 47.9835 34.4666 48.2252 34.225C48.4669 33.9833 48.8669 33.9833 49.1085 34.225L50.7752 35.8916C51.0169 36.1333 51.0169 36.5333 50.7752 36.775C50.6502 36.9 50.4919 36.9583 50.3335 36.9583Z" fill="#FCFCFD"/>
<path d="M64.064 33V23.112H60.064V21.72H69.712V23.112H65.712V33H64.064ZM70.9972 33V25.192H72.6133V33H70.9972ZM71.2372 24.152L69.0612 20.92H70.7092L72.3572 24.152H71.2372ZM74.9999 33V25.192H76.5679V26.456C76.8025 26.008 77.1279 25.6613 77.5439 25.416C77.9599 25.1707 78.4452 25.048 78.9999 25.048C80.1945 25.048 80.9679 25.5707 81.3199 26.616C81.5652 26.1253 81.9172 25.7413 82.3759 25.464C82.8345 25.1867 83.3572 25.048 83.9439 25.048C85.6932 25.048 86.5679 26.0933 86.5679 28.184V33H84.9519V28.264C84.9519 27.6027 84.8345 27.1173 84.5999 26.808C84.3759 26.4987 84.0025 26.344 83.4799 26.344C82.8932 26.344 82.4292 26.552 82.0879 26.968C81.7465 27.3733 81.5759 27.928 81.5759 28.632V33H79.9599V28.264C79.9599 27.6027 79.8479 27.1173 79.6239 26.808C79.3999 26.4987 79.0265 26.344 78.5039 26.344C77.9172 26.344 77.4532 26.552 77.1119 26.968C76.7812 27.3733 76.6159 27.928 76.6159 28.632V33H74.9999ZM93.3664 33V21.72H95.0304V26.792H95.0624L100.294 21.72H102.342L96.6464 27.176L102.662 33H100.582L95.0624 27.736H95.0304V33H93.3664ZM103.408 23.384V21.704H105.296V23.384H103.408ZM103.552 33V25.192H105.168V33H103.552ZM111.186 33.144C109.906 33.144 108.898 32.7867 108.162 32.072C107.426 31.3467 107.058 30.36 107.058 29.112C107.058 28.312 107.218 27.608 107.538 27C107.869 26.3813 108.322 25.9013 108.898 25.56C109.474 25.2187 110.136 25.048 110.882 25.048C111.96 25.048 112.808 25.3947 113.426 26.088C114.045 26.7707 114.354 27.7147 114.354 28.92V29.464H108.626C108.744 31.0853 109.602 31.896 111.202 31.896C111.65 31.896 112.088 31.8267 112.514 31.688C112.952 31.5493 113.362 31.32 113.746 31L114.226 32.12C113.874 32.44 113.421 32.6907 112.866 32.872C112.312 33.0533 111.752 33.144 111.186 33.144ZM110.946 26.184C110.274 26.184 109.741 26.392 109.346 26.808C108.952 27.224 108.712 27.7787 108.626 28.472H112.994C112.962 27.7467 112.77 27.1867 112.418 26.792C112.066 26.3867 111.576 26.184 110.946 26.184ZM112.514 22.488L113.874 20.088H115.314L113.49 22.488H112.514ZM108.402 24.152L110.162 21.56H111.634L113.394 24.152H112.322L110.898 22.504L109.474 24.152H108.402ZM116.228 33V25.192H117.796V26.456C118.031 26.008 118.356 25.6613 118.772 25.416C119.188 25.1707 119.673 25.048 120.228 25.048C121.423 25.048 122.196 25.5707 122.548 26.616C122.793 26.1253 123.145 25.7413 123.604 25.464C124.063 25.1867 124.585 25.048 125.172 25.048C126.921 25.048 127.796 26.0933 127.796 28.184V33H126.18V28.264C126.18 27.6027 126.063 27.1173 125.828 26.808C125.604 26.4987 125.231 26.344 124.708 26.344C124.121 26.344 123.657 26.552 123.316 26.968C122.975 27.3733 122.804 27.928 122.804 28.632V33H121.188V28.264C121.188 27.6027 121.076 27.1173 120.852 26.808C120.628 26.4987 120.255 26.344 119.732 26.344C119.145 26.344 118.681 26.552 118.34 26.968C118.009 27.3733 117.844 27.928 117.844 28.632V33H116.228Z" fill="#FCFCFD"/>
</svg>
