<svg width="45" height="40" viewBox="0 0 45 40" fill="none" xmlns="http://www.w3.org/2000/svg">
<path d="M14.9974 2.5C14.9974 1.77083 15.2319 1.17188 15.7008 0.703125C16.1697 0.234375 16.7688 0 17.4983 0H27.5017C28.2312 0 28.8303 0.234375 29.2992 0.703125C29.7681 1.17188 30.0026 1.77083 30.0026 2.5V5H33.7539C34.7959 5.05208 35.6817 5.41667 36.4111 6.09375C37.0884 6.82292 37.4531 7.70833 37.5052 8.75V18.75L40.9439 19.9219C41.8817 20.2865 42.4548 20.8854 42.6632 21.7188C42.8196 22.6042 42.559 23.4115 41.8817 24.1406L33.9884 31.3281C32.6337 32.1094 31.3051 32.5 30.0026 32.5C28.4396 32.5 26.9026 31.9792 25.3916 30.9375C24.5059 30.3125 23.542 30 22.5 30C21.458 30 20.4941 30.3125 19.6084 30.9375C18.2537 31.9271 16.7167 32.4479 14.9974 32.5C13.6428 32.5 12.3142 32.1094 11.0116 31.3281L3.11827 24.1406C2.44095 23.4115 2.18044 22.6042 2.33675 21.7188C2.54515 20.8854 3.11827 20.2865 4.0561 19.9219L7.49479 18.75V8.75C7.54689 7.70833 7.9116 6.82292 8.58892 6.09375C9.31834 5.41667 10.2041 5.05208 11.2461 5H14.9974V2.5ZM12.4965 17.1094L20.937 14.2969C21.979 13.9323 23.021 13.9323 24.063 14.2969L32.5035 17.1094V10H12.4965V17.1094ZM23.9849 32.9688C25.8084 34.2708 27.8143 34.9479 30.0026 35C32.1909 34.8958 34.1968 34.2188 36.0203 32.9688C37.1144 32.2917 38.1565 32.3438 39.1464 33.125C40.2926 34.0625 41.5952 34.7135 43.054 35.0781C43.7313 35.2344 44.2523 35.599 44.6171 36.1719C44.9818 36.7448 45.086 37.3698 44.9297 38.0469C44.7734 38.724 44.4086 39.2448 43.8355 39.6094C43.2624 39.974 42.6372 40.0781 41.9599 39.9219C39.98 39.401 38.4691 38.75 37.4271 37.9688C35.0825 39.2708 32.6077 39.9479 30.0026 40C27.4496 39.8438 25.3656 39.349 23.7504 38.5156C23.2815 38.3073 22.8647 38.099 22.5 37.8906C22.1353 38.099 21.7185 38.3073 21.2496 38.5156C19.6344 39.349 17.5504 39.8438 14.9974 40C12.3923 39.9479 9.94356 39.2708 7.65109 37.9688C6.55696 38.75 5.01997 39.401 3.04012 39.9219C2.3628 40.0781 1.73758 39.974 1.16447 39.6094C0.591351 39.2448 0.226641 38.724 0.0703369 38.0469C-0.0859673 37.3698 0.0182355 36.7448 0.382945 36.1719C0.747655 35.599 1.26867 35.2344 1.94599 35.0781C3.40483 34.7135 4.70736 34.0625 5.85359 33.125C6.84352 32.3958 7.88555 32.3438 8.97968 32.9688C10.8032 34.2188 12.8091 34.8958 14.9974 35C17.2378 34.9479 19.2697 34.2708 21.0933 32.9688C22.0311 32.3438 22.995 32.3438 23.9849 32.9688Z" fill="#58C17D"/>
</svg>
